<svg xmlns="http://www.w3.org/2000/svg" version="1.1" xmlns:xlink="http://www.w3.org/1999/xlink" xmlns:svgjs="http://svgjs.dev/svgjs" width="1920" height="560" preserveAspectRatio="none" viewBox="0 0 1920 560"><g mask="url(&quot;#SvgjsMask1026&quot;)" fill="none"><path d="M122.42 607.67C313.36 583.08 415.58 150.94 738.98 146.28 1062.39 141.62 1047.27 216.28 1355.55 216.28 1663.83 216.28 1816.98 146.39 1972.11 146.28" stroke="rgba(0, 0, 0, 1)" stroke-width="2"></path><path d="M627.64 593.1C811.79 586.26 961.38 291.27 1299.99 290.98 1638.61 290.69 1800.66 430.24 1972.35 430.98" stroke="rgba(0, 0, 0, 1)" stroke-width="2"></path><path d="M799.79 634.81C948.09 598.83 901.88 200 1227.37 199.17 1552.86 198.34 1862.23 410.38 2082.53 411.97" stroke="rgba(0, 0, 0, 1)" stroke-width="2"></path><path d="M306.61 582.82C490.93 562.16 597.18 159.62 913.4 155.95 1229.62 152.28 1216.8 225.95 1520.2 225.95 1823.59 225.95 1974.29 156.07 2126.99 155.95" stroke="rgba(0, 0, 0, 1)" stroke-width="2"></path><path d="M163.03 650.81C424.22 642.12 640.63 237.15 1122.92 236.92 1605.21 236.69 1836.39 459.44 2082.81 460.92" stroke="rgba(0, 0, 0, 1)" stroke-width="2"></path></g><defs><mask id="SvgjsMask1026"><rect width="1920" height="560" fill="#ffffff"></rect></mask></defs></svg>